<mxfile host="app.diagrams.net" agent="Mozilla/5.0 (Macintosh; Intel Mac OS X 10_15_7) AppleWebKit/537.36 (KHTML, like Gecko) Chrome/131.0.0.0 Safari/537.36" version="24.8.2">
  <diagram name="Page-1" id="L_e1-wKOcL9YrlfcKOpG">
    <mxGraphModel dx="466" dy="695" grid="0" gridSize="10" guides="1" tooltips="1" connect="1" arrows="1" fold="1" page="0" pageScale="1" pageWidth="850" pageHeight="1100" background="none" math="0" shadow="0">
      <root>
        <mxCell id="0" />
        <mxCell id="1" parent="0" />
        <mxCell id="nUKZYNAvWzwiA_oucJG--6" value="&lt;p style=&quot;margin:0px;margin-top:4px;text-align:center;&quot;&gt;&lt;b&gt;Book&lt;/b&gt;&lt;/p&gt;&lt;hr size=&quot;1&quot; style=&quot;border-style:solid;&quot;&gt;&lt;p style=&quot;margin:0px;margin-left:4px;&quot;&gt;+ Title&lt;br&gt;+ Author&lt;/p&gt;&lt;p style=&quot;margin:0px;margin-left:4px;&quot;&gt;+ Genre&lt;/p&gt;&lt;p style=&quot;margin:0px;margin-left:4px;&quot;&gt;+ Price&lt;/p&gt;&lt;p style=&quot;margin:0px;margin-left:4px;&quot;&gt;+ Quantity&lt;/p&gt;&lt;p style=&quot;margin:0px;margin-left:4px;&quot;&gt;+ Publisher&lt;/p&gt;&lt;p style=&quot;margin:0px;margin-left:4px;&quot;&gt;+ ISBN&lt;/p&gt;&lt;hr size=&quot;1&quot; style=&quot;border-style:solid;&quot;&gt;&lt;p style=&quot;margin:0px;margin-left:4px;&quot;&gt;+ updateQuantity()&lt;br&gt;+ getBookDetails()&lt;/p&gt;&lt;p style=&quot;margin:0px;margin-left:4px;&quot;&gt;+&amp;nbsp;&lt;span style=&quot;background-color: initial;&quot;&gt;calculateDiscountPrice()&lt;/span&gt;&lt;/p&gt;&lt;p style=&quot;margin:0px;margin-left:4px;&quot;&gt;&lt;span style=&quot;background-color: initial;&quot;&gt;+&amp;nbsp;&lt;/span&gt;&lt;span style=&quot;background-color: initial;&quot;&gt;isAvailable()&lt;/span&gt;&lt;/p&gt;" style="verticalAlign=top;align=left;overflow=fill;html=1;whiteSpace=wrap;fillColor=none;fontColor=#393C56;strokeColor=#E07A5F;labelBackgroundColor=none;fontFamily=Helvetica;rounded=0;" vertex="1" parent="1">
          <mxGeometry x="816" y="381" width="149" height="219" as="geometry" />
        </mxCell>
        <mxCell id="nUKZYNAvWzwiA_oucJG--23" style="edgeStyle=orthogonalEdgeStyle;rounded=0;orthogonalLoop=1;jettySize=auto;html=1;exitX=0.5;exitY=1;exitDx=0;exitDy=0;entryX=0.5;entryY=0;entryDx=0;entryDy=0;strokeColor=#E07A5F;fontColor=default;fontFamily=Helvetica;labelBackgroundColor=none;" edge="1" parent="1" source="nUKZYNAvWzwiA_oucJG--8" target="nUKZYNAvWzwiA_oucJG--10">
          <mxGeometry relative="1" as="geometry" />
        </mxCell>
        <mxCell id="nUKZYNAvWzwiA_oucJG--31" value="" style="edgeLabel;html=1;align=center;verticalAlign=middle;resizable=0;points=[];strokeColor=#E07A5F;fontColor=#393C56;fillColor=#F2CC8F;fontFamily=Helvetica;rounded=0;labelBackgroundColor=none;" vertex="1" connectable="0" parent="nUKZYNAvWzwiA_oucJG--23">
          <mxGeometry x="-0.0662" y="-1" relative="1" as="geometry">
            <mxPoint as="offset" />
          </mxGeometry>
        </mxCell>
        <mxCell id="nUKZYNAvWzwiA_oucJG--48" value="" style="edgeStyle=orthogonalEdgeStyle;rounded=0;orthogonalLoop=1;jettySize=auto;html=1;exitX=0;exitY=0.5;exitDx=0;exitDy=0;entryX=1;entryY=0.5;entryDx=0;entryDy=0;strokeColor=#E07A5F;fontColor=default;fillColor=#F2CC8F;labelBackgroundColor=none;" edge="1" parent="1" source="nUKZYNAvWzwiA_oucJG--8" target="nUKZYNAvWzwiA_oucJG--46">
          <mxGeometry relative="1" as="geometry" />
        </mxCell>
        <mxCell id="nUKZYNAvWzwiA_oucJG--64" value="Represents" style="edgeLabel;html=1;align=center;verticalAlign=middle;resizable=0;points=[];strokeColor=#E07A5F;fontColor=#393C56;fillColor=#F2CC8F;" vertex="1" connectable="0" parent="nUKZYNAvWzwiA_oucJG--48">
          <mxGeometry x="-0.014" relative="1" as="geometry">
            <mxPoint as="offset" />
          </mxGeometry>
        </mxCell>
        <mxCell id="nUKZYNAvWzwiA_oucJG--8" value="&lt;p style=&quot;margin:0px;margin-top:4px;text-align:center;&quot;&gt;&lt;b&gt;Customer&lt;/b&gt;&lt;/p&gt;&lt;hr size=&quot;1&quot; style=&quot;border-style:solid;&quot;&gt;&lt;p style=&quot;margin:0px;margin-left:4px;&quot;&gt;+ Name&lt;br&gt;+ contactDetails&lt;/p&gt;&lt;p style=&quot;margin:0px;margin-left:4px;&quot;&gt;+ purchaseHistory&lt;/p&gt;&lt;p style=&quot;margin:0px;margin-left:4px;&quot;&gt;+ favoriteGenres&lt;/p&gt;&lt;hr size=&quot;1&quot; style=&quot;border-style:solid;&quot;&gt;&lt;p style=&quot;margin:0px;margin-left:4px;&quot;&gt;+&amp;nbsp;&lt;code style=&quot;background-color: initial;&quot;&gt;addPurchaseHistory()&lt;/code&gt;&lt;/p&gt;&lt;p style=&quot;margin:0px;margin-left:4px;&quot;&gt;&lt;code style=&quot;background-color: initial;&quot;&gt;&lt;font&gt;+&amp;nbsp;&lt;/font&gt;getCustomerDetails()&lt;/code&gt;&lt;br&gt;&lt;/p&gt;&lt;p style=&quot;margin:0px;margin-left:4px;&quot;&gt;&lt;code style=&quot;background-color: initial;&quot;&gt;+&amp;nbsp;&lt;/code&gt;&lt;span style=&quot;background-color: initial;&quot;&gt;updateContactDetails()&lt;/span&gt;&lt;/p&gt;&lt;p style=&quot;margin:0px;margin-left:4px;&quot;&gt;&lt;span style=&quot;background-color: initial;&quot;&gt;+&amp;nbsp;&lt;/span&gt;&lt;span style=&quot;background-color: initial;&quot;&gt;addFavoriteGenre(genre): String&lt;/span&gt;&lt;/p&gt;" style="verticalAlign=top;align=left;overflow=fill;html=1;whiteSpace=wrap;fillColor=none;fontColor=#393C56;strokeColor=#E07A5F;labelBackgroundColor=none;fontFamily=Helvetica;rounded=0;" vertex="1" parent="1">
          <mxGeometry x="530.13" y="105.5" width="192.5" height="166" as="geometry" />
        </mxCell>
        <mxCell id="nUKZYNAvWzwiA_oucJG--24" style="edgeStyle=orthogonalEdgeStyle;rounded=0;orthogonalLoop=1;jettySize=auto;html=1;exitX=1;exitY=0.5;exitDx=0;exitDy=0;strokeColor=#E07A5F;fontColor=default;fontFamily=Helvetica;labelBackgroundColor=none;entryX=0;entryY=0.5;entryDx=0;entryDy=0;" edge="1" parent="1" source="nUKZYNAvWzwiA_oucJG--10" target="nUKZYNAvWzwiA_oucJG--6">
          <mxGeometry relative="1" as="geometry">
            <mxPoint x="868" y="496" as="targetPoint" />
          </mxGeometry>
        </mxCell>
        <mxCell id="nUKZYNAvWzwiA_oucJG--32" value="" style="edgeLabel;html=1;align=center;verticalAlign=middle;resizable=0;points=[];strokeColor=#E07A5F;fontColor=#393C56;fillColor=#F2CC8F;fontFamily=Helvetica;rounded=0;labelBackgroundColor=none;" vertex="1" connectable="0" parent="nUKZYNAvWzwiA_oucJG--24">
          <mxGeometry x="-0.2895" y="1" relative="1" as="geometry">
            <mxPoint as="offset" />
          </mxGeometry>
        </mxCell>
        <mxCell id="nUKZYNAvWzwiA_oucJG--39" value="" style="edgeLabel;html=1;align=center;verticalAlign=middle;resizable=0;points=[];strokeColor=#E07A5F;fontColor=#393C56;fillColor=#F2CC8F;labelBackgroundColor=none;" vertex="1" connectable="0" parent="nUKZYNAvWzwiA_oucJG--24">
          <mxGeometry x="0.0193" y="1" relative="1" as="geometry">
            <mxPoint as="offset" />
          </mxGeometry>
        </mxCell>
        <mxCell id="nUKZYNAvWzwiA_oucJG--67" value="Aggregates" style="edgeLabel;html=1;align=center;verticalAlign=middle;resizable=0;points=[];strokeColor=#E07A5F;fontColor=#393C56;fillColor=#F2CC8F;" vertex="1" connectable="0" parent="nUKZYNAvWzwiA_oucJG--24">
          <mxGeometry x="-0.261" y="-2" relative="1" as="geometry">
            <mxPoint as="offset" />
          </mxGeometry>
        </mxCell>
        <mxCell id="nUKZYNAvWzwiA_oucJG--10" value="&lt;p style=&quot;margin:0px;margin-top:4px;text-align:center;&quot;&gt;&lt;strong style=&quot;background-color: initial; text-align: left;&quot;&gt;ShoppingCart&lt;/strong&gt;&lt;/p&gt;&lt;ul&gt;&lt;/ul&gt;&lt;hr size=&quot;1&quot; style=&quot;border-style:solid;&quot;&gt;&lt;p style=&quot;margin:0px;margin-left:4px;&quot;&gt;+&amp;nbsp;&lt;code&gt;cartItems&lt;font&gt;&amp;nbsp;&lt;/font&gt;&lt;/code&gt;&lt;/p&gt;&lt;p style=&quot;margin:0px;margin-left:4px;&quot;&gt;&lt;code&gt;&lt;font&gt;+&amp;nbsp;&lt;/font&gt;&lt;/code&gt;&lt;code&gt;totalPrice&lt;/code&gt;&lt;br&gt;&lt;/p&gt;&lt;hr size=&quot;1&quot; style=&quot;border-style:solid;&quot;&gt;&lt;p style=&quot;margin:0px;margin-left:4px;&quot;&gt;+&amp;nbsp;&lt;code style=&quot;background-color: initial;&quot;&gt;addToCart(Book)&lt;/code&gt;&lt;/p&gt;&lt;p style=&quot;margin:0px;margin-left:4px;&quot;&gt;&lt;code style=&quot;background-color: initial;&quot;&gt;&lt;font&gt;+&amp;nbsp;&lt;/font&gt;removeFromCart(Book)&lt;/code&gt;&lt;/p&gt;&lt;p style=&quot;margin:0px;margin-left:4px;&quot;&gt;&lt;code style=&quot;background-color: initial;&quot;&gt;+ calculateTotal()&lt;/code&gt;&lt;/p&gt;&lt;p style=&quot;margin:0px;margin-left:4px;&quot;&gt;&lt;code style=&quot;background-color: initial;&quot;&gt;+ emptyCart()&lt;/code&gt;&lt;/p&gt;&lt;p style=&quot;margin:0px;margin-left:4px;&quot;&gt;&lt;font face=&quot;monospace&quot;&gt;+ viewCartDetails()&lt;/font&gt;&lt;/p&gt;" style="verticalAlign=top;align=left;overflow=fill;html=1;whiteSpace=wrap;fillColor=none;fontColor=#393C56;strokeColor=#E07A5F;labelBackgroundColor=none;fontFamily=Helvetica;rounded=0;" vertex="1" parent="1">
          <mxGeometry x="529.63" y="412" width="193" height="157" as="geometry" />
        </mxCell>
        <mxCell id="nUKZYNAvWzwiA_oucJG--35" style="edgeStyle=orthogonalEdgeStyle;rounded=0;orthogonalLoop=1;jettySize=auto;html=1;exitX=1;exitY=0.5;exitDx=0;exitDy=0;strokeColor=#E07A5F;fontColor=default;fillColor=#F2CC8F;labelBackgroundColor=none;" edge="1" parent="1" source="nUKZYNAvWzwiA_oucJG--12" target="nUKZYNAvWzwiA_oucJG--6">
          <mxGeometry relative="1" as="geometry" />
        </mxCell>
        <mxCell id="nUKZYNAvWzwiA_oucJG--36" value="" style="edgeLabel;html=1;align=center;verticalAlign=middle;resizable=0;points=[];strokeColor=#E07A5F;fontColor=#393C56;fillColor=#F2CC8F;labelBackgroundColor=none;" vertex="1" connectable="0" parent="nUKZYNAvWzwiA_oucJG--35">
          <mxGeometry x="0.3147" y="3" relative="1" as="geometry">
            <mxPoint as="offset" />
          </mxGeometry>
        </mxCell>
        <mxCell id="nUKZYNAvWzwiA_oucJG--61" value="Uses" style="edgeLabel;html=1;align=center;verticalAlign=middle;resizable=0;points=[];strokeColor=#E07A5F;fontColor=#393C56;fillColor=#F2CC8F;" vertex="1" connectable="0" parent="nUKZYNAvWzwiA_oucJG--35">
          <mxGeometry x="0.3014" y="-2" relative="1" as="geometry">
            <mxPoint as="offset" />
          </mxGeometry>
        </mxCell>
        <mxCell id="nUKZYNAvWzwiA_oucJG--42" style="edgeStyle=orthogonalEdgeStyle;rounded=0;orthogonalLoop=1;jettySize=auto;html=1;entryX=1;entryY=0.5;entryDx=0;entryDy=0;strokeColor=#E07A5F;fontColor=default;fillColor=#F2CC8F;labelBackgroundColor=none;" edge="1" parent="1" source="nUKZYNAvWzwiA_oucJG--12" target="nUKZYNAvWzwiA_oucJG--15">
          <mxGeometry relative="1" as="geometry" />
        </mxCell>
        <mxCell id="nUKZYNAvWzwiA_oucJG--63" value="Applies" style="edgeLabel;html=1;align=center;verticalAlign=middle;resizable=0;points=[];strokeColor=#E07A5F;fontColor=#393C56;fillColor=#F2CC8F;" vertex="1" connectable="0" parent="nUKZYNAvWzwiA_oucJG--42">
          <mxGeometry x="0.1306" y="1" relative="1" as="geometry">
            <mxPoint as="offset" />
          </mxGeometry>
        </mxCell>
        <mxCell id="nUKZYNAvWzwiA_oucJG--49" style="edgeStyle=orthogonalEdgeStyle;rounded=0;orthogonalLoop=1;jettySize=auto;html=1;exitX=0.5;exitY=1;exitDx=0;exitDy=0;strokeColor=#E07A5F;fontColor=default;fillColor=#F2CC8F;labelBackgroundColor=none;" edge="1" parent="1" source="nUKZYNAvWzwiA_oucJG--12" target="nUKZYNAvWzwiA_oucJG--8">
          <mxGeometry relative="1" as="geometry" />
        </mxCell>
        <mxCell id="nUKZYNAvWzwiA_oucJG--62" value="Uses" style="edgeLabel;html=1;align=center;verticalAlign=middle;resizable=0;points=[];strokeColor=#E07A5F;fontColor=#393C56;fillColor=#F2CC8F;" vertex="1" connectable="0" parent="nUKZYNAvWzwiA_oucJG--49">
          <mxGeometry x="-0.0493" y="1" relative="1" as="geometry">
            <mxPoint as="offset" />
          </mxGeometry>
        </mxCell>
        <mxCell id="nUKZYNAvWzwiA_oucJG--59" style="edgeStyle=orthogonalEdgeStyle;rounded=0;orthogonalLoop=1;jettySize=auto;html=1;exitX=1;exitY=0.25;exitDx=0;exitDy=0;entryX=0.5;entryY=0;entryDx=0;entryDy=0;strokeColor=#E07A5F;fontColor=#393C56;fillColor=#F2CC8F;" edge="1" parent="1" source="nUKZYNAvWzwiA_oucJG--12" target="nUKZYNAvWzwiA_oucJG--52">
          <mxGeometry relative="1" as="geometry" />
        </mxCell>
        <mxCell id="nUKZYNAvWzwiA_oucJG--60" value="Handles" style="edgeLabel;html=1;align=center;verticalAlign=middle;resizable=0;points=[];strokeColor=#E07A5F;fontColor=#393C56;fillColor=#F2CC8F;" vertex="1" connectable="0" parent="nUKZYNAvWzwiA_oucJG--59">
          <mxGeometry x="0.2881" y="1" relative="1" as="geometry">
            <mxPoint as="offset" />
          </mxGeometry>
        </mxCell>
        <mxCell id="nUKZYNAvWzwiA_oucJG--12" value="&lt;p style=&quot;margin:0px;margin-top:4px;text-align:center;&quot;&gt;&lt;strong style=&quot;background-color: initial; text-align: left;&quot;&gt;Sale&lt;/strong&gt;&lt;/p&gt;&lt;ul&gt;&lt;/ul&gt;&lt;hr size=&quot;1&quot; style=&quot;border-style:solid;&quot;&gt;&lt;p style=&quot;margin:0px;margin-left:4px;&quot;&gt;+&amp;nbsp;&lt;code&gt;&lt;code&gt;saleID&lt;font&gt;&amp;nbsp;&lt;/font&gt;&lt;/code&gt;&lt;/code&gt;&lt;/p&gt;&lt;p style=&quot;margin:0px;margin-left:4px;&quot;&gt;&lt;code&gt;&lt;code&gt;+ date&lt;/code&gt;&lt;/code&gt;&lt;/p&gt;&lt;p style=&quot;margin:0px;margin-left:4px;&quot;&gt;&lt;code&gt;&lt;code&gt;&lt;font&gt;+&amp;nbsp;&lt;/font&gt;customer&lt;font&gt;&amp;nbsp;&lt;/font&gt;&lt;/code&gt;&lt;/code&gt;&lt;/p&gt;&lt;p style=&quot;margin:0px;margin-left:4px;&quot;&gt;&lt;code&gt;&lt;code&gt;+ listOfBooks&lt;/code&gt;&lt;/code&gt;&lt;/p&gt;&lt;p style=&quot;margin:0px;margin-left:4px;&quot;&gt;&lt;code&gt;&lt;code&gt;&lt;font&gt;+&amp;nbsp;&lt;/font&gt;totalAmount&lt;/code&gt;&lt;font&gt;&amp;nbsp;&lt;/font&gt;&lt;/code&gt;&lt;/p&gt;&lt;hr size=&quot;1&quot; style=&quot;border-style:solid;&quot;&gt;&lt;p style=&quot;margin:0px;margin-left:4px;&quot;&gt;+&amp;nbsp;&lt;code style=&quot;background-color: initial;&quot;&gt;processSale()&lt;/code&gt;&lt;/p&gt;&lt;p style=&quot;margin:0px;margin-left:4px;&quot;&gt;&lt;span style=&quot;background-color: initial;&quot;&gt;+&amp;nbsp;&lt;/span&gt;&lt;code style=&quot;background-color: initial;&quot;&gt;generateReceipt()&lt;/code&gt;&lt;/p&gt;&lt;p style=&quot;margin:0px;margin-left:4px;&quot;&gt;&lt;font face=&quot;monospace&quot;&gt;+ refundSale&lt;/font&gt;&lt;/p&gt;&lt;p style=&quot;margin:0px;margin-left:4px;&quot;&gt;&lt;font face=&quot;monospace&quot;&gt;+ addPaymentMethod(method):String&lt;/font&gt;&lt;/p&gt;" style="verticalAlign=top;align=left;overflow=fill;html=1;whiteSpace=wrap;fillColor=none;fontColor=#393C56;strokeColor=#E07A5F;labelBackgroundColor=none;fontFamily=Helvetica;rounded=0;" vertex="1" parent="1">
          <mxGeometry x="495.75" y="-178" width="261.25" height="188" as="geometry" />
        </mxCell>
        <mxCell id="nUKZYNAvWzwiA_oucJG--15" value="&lt;p style=&quot;margin: 4px 0px 0px; text-align: center;&quot;&gt;&lt;strong style=&quot;background-color: initial; text-align: left;&quot;&gt;Coupon&lt;/strong&gt;&lt;/p&gt;&lt;ul&gt;&lt;/ul&gt;&lt;hr size=&quot;1&quot; style=&quot;border-style:solid;&quot;&gt;&lt;p style=&quot;margin:0px;margin-left:4px;&quot;&gt;+&amp;nbsp;&lt;code&gt;&lt;code&gt;&lt;code&gt;code&lt;/code&gt;&lt;/code&gt;&lt;/code&gt;&lt;/p&gt;&lt;p style=&quot;margin:0px;margin-left:4px;&quot;&gt;&lt;code&gt;&lt;code&gt;&lt;span style=&quot;&quot;&gt;+&amp;nbsp;&lt;/span&gt;&lt;code&gt;discountPercentage&lt;/code&gt;&lt;/code&gt;&lt;/code&gt;&lt;/p&gt;&lt;p style=&quot;margin:0px;margin-left:4px;&quot;&gt;&lt;code&gt;&lt;code&gt;&lt;span style=&quot;&quot;&gt;+&amp;nbsp;&lt;/span&gt;&lt;code&gt;validityPeriod&lt;/code&gt;&lt;/code&gt;&lt;/code&gt;&lt;/p&gt;&lt;p style=&quot;margin:0px;margin-left:4px;&quot;&gt;&lt;code&gt;&lt;code&gt;&lt;span style=&quot;&quot;&gt;+&amp;nbsp;&lt;/span&gt;&lt;code&gt;applicableBooks&lt;/code&gt;&lt;font&gt;&amp;nbsp;&lt;/font&gt;&lt;/code&gt;&lt;/code&gt;&lt;/p&gt;&lt;hr size=&quot;1&quot; style=&quot;border-style:solid;&quot;&gt;&lt;p style=&quot;margin:0px;margin-left:4px;&quot;&gt;+ applyCoupon()&lt;/p&gt;" style="verticalAlign=top;align=left;overflow=fill;html=1;whiteSpace=wrap;fillColor=none;fontColor=#393C56;strokeColor=#E07A5F;labelBackgroundColor=none;fontFamily=Helvetica;rounded=0;" vertex="1" parent="1">
          <mxGeometry x="140" y="-176.5" width="216" height="185" as="geometry" />
        </mxCell>
        <mxCell id="nUKZYNAvWzwiA_oucJG--26" style="edgeStyle=orthogonalEdgeStyle;rounded=0;orthogonalLoop=1;jettySize=auto;html=1;exitX=0;exitY=0.5;exitDx=0;exitDy=0;entryX=1;entryY=0.5;entryDx=0;entryDy=0;strokeColor=#E07A5F;fontColor=default;fontFamily=Helvetica;labelBackgroundColor=none;" edge="1" parent="1" source="nUKZYNAvWzwiA_oucJG--17" target="nUKZYNAvWzwiA_oucJG--6">
          <mxGeometry relative="1" as="geometry" />
        </mxCell>
        <mxCell id="nUKZYNAvWzwiA_oucJG--33" value="" style="edgeLabel;html=1;align=center;verticalAlign=middle;resizable=0;points=[];strokeColor=#E07A5F;fontColor=#393C56;fillColor=#F2CC8F;fontFamily=Helvetica;rounded=0;labelBackgroundColor=none;" vertex="1" connectable="0" parent="nUKZYNAvWzwiA_oucJG--26">
          <mxGeometry x="-0.6595" relative="1" as="geometry">
            <mxPoint as="offset" />
          </mxGeometry>
        </mxCell>
        <mxCell id="nUKZYNAvWzwiA_oucJG--66" value="Manages" style="edgeLabel;html=1;align=center;verticalAlign=middle;resizable=0;points=[];strokeColor=#E07A5F;fontColor=#393C56;fillColor=#F2CC8F;" vertex="1" connectable="0" parent="nUKZYNAvWzwiA_oucJG--26">
          <mxGeometry x="0.1871" y="-3" relative="1" as="geometry">
            <mxPoint as="offset" />
          </mxGeometry>
        </mxCell>
        <mxCell id="nUKZYNAvWzwiA_oucJG--17" value="&lt;p style=&quot;margin: 4px 0px 0px; text-align: center;&quot;&gt;&lt;strong style=&quot;background-color: initial; text-align: left;&quot;&gt;Inventory&lt;/strong&gt;&lt;/p&gt;&lt;ul&gt;&lt;/ul&gt;&lt;hr size=&quot;1&quot; style=&quot;border-style:solid;&quot;&gt;&lt;p style=&quot;margin:0px;margin-left:4px;&quot;&gt;+&lt;span style=&quot;background-color: initial;&quot;&gt;&amp;nbsp;&lt;/span&gt;&lt;code style=&quot;background-color: initial;&quot;&gt;bookList&lt;/code&gt;&lt;/p&gt;&lt;p style=&quot;margin:0px;margin-left:4px;&quot;&gt;&lt;span style=&quot;background-color: initial;&quot;&gt;+&amp;nbsp;&lt;/span&gt;&lt;code style=&quot;background-color: initial;&quot;&gt;lowStockThreshold&lt;/code&gt;&lt;span style=&quot;background-color: initial;&quot;&gt;&amp;nbsp;&lt;/span&gt;&lt;/p&gt;&lt;hr size=&quot;1&quot; style=&quot;border-style:solid;&quot;&gt;&lt;p style=&quot;margin:0px;margin-left:4px;&quot;&gt;+&amp;nbsp;&lt;code style=&quot;background-color: initial;&quot;&gt;checkStock(Book)&lt;/code&gt;&lt;/p&gt;&lt;p style=&quot;margin:0px;margin-left:4px;&quot;&gt;&lt;code style=&quot;background-color: initial;&quot;&gt;&lt;font&gt;+&amp;nbsp;&lt;/font&gt;updateInventory(Book)&lt;/code&gt;&lt;/p&gt;&lt;p style=&quot;margin:0px;margin-left:4px;&quot;&gt;&lt;span style=&quot;background-color: initial;&quot;&gt;+&amp;nbsp;&lt;/span&gt;&lt;code style=&quot;background-color: initial;&quot;&gt;generateStockReport()&lt;/code&gt;&lt;/p&gt;&lt;p style=&quot;margin:0px;margin-left:4px;&quot;&gt;&lt;code style=&quot;background-color: initial;&quot;&gt;+&amp;nbsp;&lt;/code&gt;&lt;span style=&quot;background-color: initial;&quot;&gt;restock(Book book, int quantity)&lt;/span&gt;&lt;/p&gt;&lt;p style=&quot;margin:0px;margin-left:4px;&quot;&gt;&lt;span style=&quot;background-color: initial;&quot;&gt;+&amp;nbsp;&lt;/span&gt;&lt;span style=&quot;background-color: initial;&quot;&gt;notifyLowStock(Book book)&lt;/span&gt;&lt;/p&gt;" style="verticalAlign=top;align=left;overflow=fill;html=1;whiteSpace=wrap;fillColor=none;fontColor=#393C56;strokeColor=#E07A5F;labelBackgroundColor=none;fontFamily=Helvetica;rounded=0;" vertex="1" parent="1">
          <mxGeometry x="1074" y="398" width="216" height="185" as="geometry" />
        </mxCell>
        <mxCell id="nUKZYNAvWzwiA_oucJG--46" value="&lt;p style=&quot;margin: 4px 0px 0px; text-align: center;&quot;&gt;&lt;strong style=&quot;background-color: initial; text-align: left;&quot;&gt;Order&lt;/strong&gt;&lt;/p&gt;&lt;ul&gt;&lt;/ul&gt;&lt;hr size=&quot;1&quot; style=&quot;border-style:solid;&quot;&gt;&lt;p style=&quot;margin:0px;margin-left:4px;&quot;&gt;+&amp;nbsp;&lt;code style=&quot;background-color: initial;&quot;&gt;orderID&lt;/code&gt;&lt;/p&gt;&lt;p style=&quot;margin:0px;margin-left:4px;&quot;&gt;&lt;code style=&quot;background-color: initial;&quot;&gt;&lt;font face=&quot;Helvetica&quot;&gt;+&amp;nbsp;&lt;/font&gt;customer&lt;/code&gt;&lt;/p&gt;&lt;p style=&quot;margin:0px;margin-left:4px;&quot;&gt;&lt;code style=&quot;background-color: initial;&quot;&gt;&lt;font face=&quot;Helvetica&quot;&gt;+&amp;nbsp;&lt;/font&gt;shippingAddress&lt;/code&gt;&lt;/p&gt;&lt;p style=&quot;margin:0px;margin-left:4px;&quot;&gt;&lt;span style=&quot;background-color: initial;&quot;&gt;+&amp;nbsp;&lt;/span&gt;&lt;code style=&quot;background-color: initial;&quot;&gt;orderDate&lt;/code&gt;&lt;/p&gt;&lt;p style=&quot;margin:0px;margin-left:4px;&quot;&gt;&lt;span style=&quot;background-color: initial;&quot;&gt;+&amp;nbsp;&lt;/span&gt;&lt;code style=&quot;background-color: initial;&quot;&gt;status&lt;/code&gt;&lt;/p&gt;&lt;hr size=&quot;1&quot; style=&quot;border-style:solid;&quot;&gt;&lt;p style=&quot;margin:0px;margin-left:4px;&quot;&gt;+ trackOrder()&lt;/p&gt;&lt;p style=&quot;margin:0px;margin-left:4px;&quot;&gt;+ cancelOrder()&lt;/p&gt;&lt;p style=&quot;margin:0px;margin-left:4px;&quot;&gt;+ getOrderDetails()&lt;/p&gt;" style="verticalAlign=top;align=left;overflow=fill;html=1;whiteSpace=wrap;fillColor=none;fontColor=#393C56;strokeColor=#E07A5F;labelBackgroundColor=none;fontFamily=Helvetica;rounded=0;" vertex="1" parent="1">
          <mxGeometry x="145" y="96" width="216" height="185" as="geometry" />
        </mxCell>
        <mxCell id="nUKZYNAvWzwiA_oucJG--52" value="&lt;p style=&quot;margin: 4px 0px 0px; text-align: center;&quot;&gt;&lt;strong style=&quot;background-color: initial; text-align: left;&quot;&gt;Payment&lt;/strong&gt;&lt;/p&gt;&lt;ul&gt;&lt;/ul&gt;&lt;hr size=&quot;1&quot; style=&quot;border-style:solid;&quot;&gt;&lt;p style=&quot;margin:0px;margin-left:4px;&quot;&gt;+ &lt;font face=&quot;monospace&quot;&gt;paymentID&lt;/font&gt;&lt;/p&gt;&lt;p style=&quot;margin:0px;margin-left:4px;&quot;&gt;&lt;code style=&quot;background-color: initial;&quot;&gt;&lt;font face=&quot;Helvetica&quot;&gt;+&amp;nbsp;&lt;/font&gt;&lt;code style=&quot;background-color: initial;&quot;&gt;saleID&lt;/code&gt;&lt;/code&gt;&lt;/p&gt;&lt;p style=&quot;margin:0px;margin-left:4px;&quot;&gt;&lt;code style=&quot;background-color: initial;&quot;&gt;&lt;span style=&quot;background-color: initial; font-family: Helvetica;&quot;&gt;+&amp;nbsp;&lt;/span&gt;&lt;code style=&quot;background-color: initial;&quot;&gt;amount&lt;/code&gt;&lt;/code&gt;&lt;/p&gt;&lt;p style=&quot;margin:0px;margin-left:4px;&quot;&gt;&lt;code style=&quot;background-color: initial;&quot;&gt;&lt;span style=&quot;background-color: initial; font-family: Helvetica;&quot;&gt;+&amp;nbsp;&lt;/span&gt;&lt;code style=&quot;background-color: initial;&quot;&gt;paymentMethod&lt;br&gt;&lt;/code&gt;&lt;span style=&quot;background-color: initial; font-family: Helvetica;&quot;&gt;+&amp;nbsp;&lt;/span&gt;&lt;code style=&quot;background-color: initial;&quot;&gt;paymentDate&lt;/code&gt;&lt;br&gt;&lt;/code&gt;&lt;/p&gt;&lt;hr size=&quot;1&quot; style=&quot;border-style:solid;&quot;&gt;&lt;p style=&quot;margin:0px;margin-left:4px;&quot;&gt;+&amp;nbsp;&lt;code style=&quot;background-color: initial;&quot;&gt;processPayment()&lt;/code&gt;&lt;/p&gt;&lt;p style=&quot;margin:0px;margin-left:4px;&quot;&gt;&lt;span style=&quot;background-color: initial;&quot;&gt;+&amp;nbsp;&lt;/span&gt;&lt;code style=&quot;background-color: initial;&quot;&gt;refundPayment()&lt;/code&gt;&lt;/p&gt;&lt;p style=&quot;margin:0px;margin-left:4px;&quot;&gt;&lt;span style=&quot;background-color: initial;&quot;&gt;+&amp;nbsp;&lt;/span&gt;&lt;code style=&quot;background-color: initial;&quot;&gt;getPaymentDetails()&lt;/code&gt;&lt;/p&gt;" style="verticalAlign=top;align=left;overflow=fill;html=1;whiteSpace=wrap;fillColor=none;fontColor=#393C56;strokeColor=#E07A5F;labelBackgroundColor=none;fontFamily=Helvetica;rounded=0;" vertex="1" parent="1">
          <mxGeometry x="1051" y="-79.5" width="216" height="185" as="geometry" />
        </mxCell>
        <mxCell id="nUKZYNAvWzwiA_oucJG--57" style="edgeStyle=orthogonalEdgeStyle;rounded=0;orthogonalLoop=1;jettySize=auto;html=1;exitX=0.5;exitY=1;exitDx=0;exitDy=0;strokeColor=#E07A5F;fontColor=default;fillColor=#F2CC8F;labelBackgroundColor=none;" edge="1" parent="1" source="nUKZYNAvWzwiA_oucJG--55" target="nUKZYNAvWzwiA_oucJG--17">
          <mxGeometry relative="1" as="geometry" />
        </mxCell>
        <mxCell id="nUKZYNAvWzwiA_oucJG--65" value="Tracks" style="edgeLabel;html=1;align=center;verticalAlign=middle;resizable=0;points=[];strokeColor=#E07A5F;fontColor=#393C56;fillColor=#F2CC8F;" vertex="1" connectable="0" parent="nUKZYNAvWzwiA_oucJG--57">
          <mxGeometry x="-0.0733" y="1" relative="1" as="geometry">
            <mxPoint as="offset" />
          </mxGeometry>
        </mxCell>
        <mxCell id="nUKZYNAvWzwiA_oucJG--55" value="&lt;p style=&quot;margin: 4px 0px 0px; text-align: center;&quot;&gt;&lt;strong style=&quot;background-color: initial; text-align: left;&quot;&gt;Supplier&lt;/strong&gt;&lt;/p&gt;&lt;ul&gt;&lt;/ul&gt;&lt;hr size=&quot;1&quot; style=&quot;border-style:solid;&quot;&gt;&lt;p style=&quot;margin:0px;margin-left:4px;&quot;&gt;+&lt;span style=&quot;background-color: initial;&quot;&gt;&amp;nbsp;&lt;/span&gt;&lt;code style=&quot;background-color: initial;&quot;&gt;supplierID&lt;/code&gt;&lt;/p&gt;&lt;p style=&quot;margin:0px;margin-left:4px;&quot;&gt;&lt;span style=&quot;background-color: initial;&quot;&gt;+&amp;nbsp;&lt;/span&gt;&lt;code style=&quot;background-color: initial;&quot;&gt;name&lt;/code&gt;&lt;/p&gt;&lt;p style=&quot;margin:0px;margin-left:4px;&quot;&gt;&lt;span style=&quot;background-color: initial;&quot;&gt;+&amp;nbsp;&lt;/span&gt;&lt;code style=&quot;background-color: initial;&quot;&gt;contactDetails&lt;/code&gt;&lt;/p&gt;&lt;p style=&quot;margin:0px;margin-left:4px;&quot;&gt;&lt;span style=&quot;background-color: initial;&quot;&gt;+&amp;nbsp;&lt;/span&gt;&lt;code style=&quot;background-color: initial;&quot;&gt;suppliedBooks&lt;/code&gt;&lt;span style=&quot;background-color: initial;&quot;&gt;&amp;nbsp;&lt;/span&gt;&lt;/p&gt;&lt;hr size=&quot;1&quot; style=&quot;border-style:solid;&quot;&gt;&lt;p style=&quot;margin:0px;margin-left:4px;&quot;&gt;+&amp;nbsp;&lt;code style=&quot;background-color: initial;&quot;&gt;getSupplierDetails()&lt;/code&gt;&lt;/p&gt;&lt;p style=&quot;margin:0px;margin-left:4px;&quot;&gt;&lt;span style=&quot;background-color: initial;&quot;&gt;+&amp;nbsp;&lt;/span&gt;&lt;code style=&quot;background-color: initial;&quot;&gt;addNewBookSupply(Book book, int quantity)&lt;/code&gt;&lt;/p&gt;" style="verticalAlign=top;align=left;overflow=fill;html=1;whiteSpace=wrap;fillColor=none;fontColor=#393C56;strokeColor=#E07A5F;labelBackgroundColor=none;fontFamily=Helvetica;rounded=0;" vertex="1" parent="1">
          <mxGeometry x="1015.5" y="147" width="333" height="149" as="geometry" />
        </mxCell>
      </root>
    </mxGraphModel>
  </diagram>
</mxfile>
